<?xml version="1.0" encoding="iso-8859-1"?>
<!-- Generator: Adobe Illustrator 19.0.0, SVG Export Plug-In . SVG Version: 6.00 Build 0)  -->
<svg version="1.1" id="Layer_1" xmlns="http://www.w3.org/2000/svg" xmlns:xlink="http://www.w3.org/1999/xlink" x="0px" y="0px"
	 viewBox="0 0 512.001 512.001" style="enable-background:new 0 0 512.001 512.001;" xml:space="preserve">
<g>
	<g>
		<g>
			<path d="M494.793,184.079H354.746v-12.578c0-14.692-12.074-26.644-26.914-26.644H201.641c-14.84,0-26.914,11.953-26.914,26.644
				v12.578H141.36L41.688,85.938c-6.687-6.584-17.566-6.583-24.251,0L5.082,98.103C1.805,101.329,0,105.627,0,110.206
				s1.805,8.877,5.081,12.103l6.567,6.466v71.305C4.542,205.869,0,214.653,0,224.47c0,17.39,14.251,31.538,31.768,31.538
				c13.647,0,25.313-8.589,29.8-20.607h76.272v36.16c-5.741,2.77-9.707,8.616-9.707,15.364v40.618H57.977
				c-9.488,0-17.207,7.659-17.207,17.072v17.393c0,9.414,7.719,17.073,17.207,17.073h13.597c-0.951,3.49-1.44,7.11-1.44,10.768
				c0,9.923,3.558,19.037,9.475,26.152h-17.91c-4.142,0-7.5,3.358-7.5,7.5c0,4.142,3.358,7.5,7.5,7.5h246.72
				c4.142,0,7.5-3.358,7.5-7.5c0-4.142-3.358-7.5-7.5-7.5h-164.81c5.917-7.115,9.475-16.229,9.475-26.152
				c0-3.645-0.49-7.271-1.443-10.768h20.152c4.142,0,7.5-3.358,7.5-7.5c0-4.142-3.358-7.5-7.5-7.5H57.977
				c-1.217,0-2.207-0.929-2.207-2.072v-17.393c0-1.142,0.99-2.071,2.207-2.071h396.047c1.217,0,2.207,0.929,2.207,2.071v17.393
				c0,1.143-0.99,2.072-2.207,2.072H200.427c-4.142,0-7.5,3.358-7.5,7.5c0,4.142,3.358,7.5,7.5,7.5h159.929
				c-0.951,3.488-1.438,7.106-1.438,10.768c0,9.923,3.558,19.037,9.475,26.152h-32.309c-4.142,0-7.5,3.358-7.5,7.5
				c0,4.142,3.358,7.5,7.5,7.5h114.219c4.142,0,7.5-3.358,7.5-7.5c0-4.142-3.358-7.5-7.5-7.5h-17.91
				c5.917-7.115,9.475-16.229,9.475-26.152c0-3.646-0.49-7.271-1.443-10.768h13.6c9.488,0,17.207-7.659,17.207-17.073v-17.393
				c0-9.414-7.719-17.072-17.207-17.072h-58.508v-40.618c0-6.747-3.966-12.594-9.707-15.364V235.4h108.984
				c9.488,0,17.207-7.652,17.207-17.058v-17.204C512,191.732,504.281,184.079,494.793,184.079z M87.475,379.079h48.267
				c1.536,3.362,2.341,7.047,2.341,10.768c0,14.42-11.876,26.152-26.475,26.152s-26.475-11.732-26.475-26.152
				C85.133,386.112,85.937,382.443,87.475,379.079z M189.726,171.502L189.726,171.502c0.001-6.42,5.346-11.644,11.915-11.644
				h126.191c6.569,0,11.914,5.223,11.914,11.644v12.578h-150.02V171.502z M339.747,199.08v21.32h-150.02v-21.32H339.747z
				 M31.768,241.007c-9.246,0-16.768-7.418-16.768-16.537c0-5.737,2.978-10.801,7.489-13.768c0.372-0.185,0.725-0.4,1.059-0.642
				c2.43-1.354,5.235-2.127,8.22-2.127c9.246,0,16.768,7.418,16.768,16.537C48.536,233.589,41.013,241.007,31.768,241.007z
				 M63.272,220.4c-2.017-15.475-15.376-27.467-31.504-27.467c-1.743,0-3.452,0.14-5.119,0.409v-49.796l78.053,76.854H63.272z
				 M126.831,220.4c-1.046,0-1.625-0.641-1.826-0.917c-0.242-0.334-0.512-0.647-0.806-0.936L15.605,111.62
				c-0.5-0.493-0.605-1.041-0.605-1.414s0.105-0.921,0.605-1.414L27.96,96.627c0.434-0.428,1.018-0.641,1.602-0.641
				c0.583,0,1.167,0.214,1.602,0.641l101.862,100.298c1.403,1.381,3.293,2.156,5.262,2.156h36.439V220.4H126.831z M166.961,235.4
				v34.451H152.84V235.4H166.961z M176.668,327.542h-33.535v-40.618c0-1.142,0.99-2.071,2.207-2.071h29.121
				c1.217,0,2.207,0.929,2.207,2.071V327.542z M341.688,271.56L341.688,271.56c-5.742,2.77-9.708,8.616-9.708,15.364v40.618H191.668
				v-40.618c0-6.747-3.966-12.594-9.707-15.364V235.4h159.727V271.56z M400.392,415.999c-14.598,0-26.475-11.732-26.475-26.152
				c0-3.739,0.802-7.405,2.341-10.768h48.268c1.536,3.362,2.34,7.046,2.34,10.768C426.867,404.267,414.99,415.999,400.392,415.999z
				 M346.98,327.542v-40.618c0-1.142,0.99-2.071,2.207-2.071h29.121c1.217,0,2.207,0.929,2.207,2.071v40.618H346.98z
				 M356.687,269.851V235.4h14.121v34.451H356.687z M497,218.342c0,1.135-0.99,2.058-2.207,2.058H354.746v-21.32h140.047
				c1.217,0,2.207,0.923,2.207,2.057V218.342z"/>
			<path d="M31.768,216.489c-4.142,0-7.5,3.358-7.5,7.5v0.961c0,4.142,3.358,7.5,7.5,7.5c4.142,0,7.5-3.358,7.5-7.5v-0.961
				C39.268,219.847,35.91,216.489,31.768,216.489z"/>
		</g>
	</g>
</g>
<g>
</g>
<g>
</g>
<g>
</g>
<g>
</g>
<g>
</g>
<g>
</g>
<g>
</g>
<g>
</g>
<g>
</g>
<g>
</g>
<g>
</g>
<g>
</g>
<g>
</g>
<g>
</g>
<g>
</g>
</svg>
