<svg height="512pt" viewBox="0 -17 512 512" width="512pt" xmlns="http://www.w3.org/2000/svg"><path d="m322.253906 191.179688c-4.269531 0-7.726562-3.457032-7.726562-7.726563v-73.925781c0-4.269532 3.457031-7.726563 7.726562-7.726563 4.265625 0 7.726563 3.460938 7.726563 7.726563v73.925781c0 4.269531-3.460938 7.726563-7.726563 7.726563zm0 0" fill="#f72b2b"/><path d="m402.109375 422.644531c-5.21875 0-9.449219-4.230469-9.449219-9.445312v-403.75c0-5.21875 4.230469-9.449219 9.449219-9.449219s9.449219 4.230469 9.449219 9.449219v403.75c0 5.214843-4.230469 9.445312-9.449219 9.445312zm0 0" fill="#75a4c8"/><path d="m420.484375 46.878906h-62.976563c-4.269531 0-7.726562-3.460937-7.726562-7.726562 0-4.269532 3.457031-7.726563 7.726562-7.726563h62.976563c4.269531 0 7.726563 3.457031 7.726563 7.726563 0 4.265625-3.457032 7.726562-7.726563 7.726562zm0 0" fill="#4c78a0"/><path d="m420.484375 77.339844h-62.976563c-4.269531 0-7.726562-3.457032-7.726562-7.726563 0-4.265625 3.457031-7.726562 7.726562-7.726562h62.976563c4.269531 0 7.726563 3.460937 7.726563 7.726562 0 4.269531-3.457032 7.726563-7.726563 7.726563zm0 0" fill="#4c78a0"/><path d="m47.902344 364.019531h416.195312v30.921875h-416.195312zm0 0" fill="#95c6df"/><path d="m30.90625 306.238281h29.875v137.011719h-29.875zm0 0" fill="#628fb1"/><path d="m45.84375 306.238281h14.9375v137.011719h-14.9375zm0 0" fill="#4c78a0"/><path d="m451.21875 306.238281h29.875v137.011719h-29.875zm0 0" fill="#628fb1"/><path d="m466.15625 306.238281h14.9375v137.011719h-14.9375zm0 0" fill="#4c78a0"/><path d="m455.382812 160.71875-101.144531 87.761719h-288.824219v46.425781h431.898438v-126.40625c0-5.6875-4.609375-10.300781-10.300781-10.300781h-24.878907c-2.480468 0-4.875.894531-6.75 2.519531zm0 0" fill="#d9efec"/><path d="m497.320312 168.5v126.402344h-25.375v-126.402344c0-5.59375-4.460937-10.15625-10.03125-10.292969.070313-.007812.152344-.007812.226563-.007812h24.878906c5.683594 0 10.300781 4.613281 10.300781 10.300781zm0 0" fill="#c1dbd6"/><path d="m283.457031 300.828125h-268.773437v-57.042969c0-5.691406 4.613281-10.300781 10.304687-10.300781h248.167969c5.6875 0 10.300781 4.609375 10.300781 10.300781zm0 0" fill="#38aaff"/><path d="m116.410156 296.964844v-82.265625c0-2.144531 1.746094-3.890625 3.894532-3.890625h36.570312v86.15625h25.757812v-86.15625h50.1875v86.15625h25.753907v-86.15625h50.191406v86.15625h25.753906v-86.15625h36.574219c2.144531 0 3.894531 1.746094 3.894531 3.890625v82.265625h25.753907v-82.265625c0-16.347657-13.300782-29.644531-29.648438-29.644531h-250.789062c-16.347657 0-29.648438 13.296874-29.648438 29.644531v82.265625zm0 0" fill="#a0ecff"/><path d="m501.699219 315.054688h-491.398438c-5.6875 0-10.300781-4.613282-10.300781-10.304688v-7.847656c0-5.6875 4.613281-10.300782 10.300781-10.300782h491.398438c5.6875 0 10.300781 4.613282 10.300781 10.300782v7.847656c0 5.691406-4.613281 10.304688-10.300781 10.304688zm0 0" fill="#75a4c8"/><path d="m76.746094 447.371094c0 17.066406-13.835938 30.902344-30.902344 30.902344-17.070312 0-30.90625-13.835938-30.90625-30.902344 0-17.070313 13.835938-30.90625 30.90625-30.90625 17.066406 0 30.902344 13.835937 30.902344 30.90625zm0 0" fill="#336686"/><path d="m497.0625 447.371094c0 17.066406-13.835938 30.902344-30.90625 30.902344-17.066406 0-30.902344-13.835938-30.902344-30.902344 0-17.070313 13.835938-30.90625 30.902344-30.90625 17.070312 0 30.90625 13.835937 30.90625 30.90625zm0 0" fill="#336686"/><path d="m330.816406 29.1875c-4.265625 0-7.722656-3.460938-7.722656-7.726562v-7.820313c0-4.265625 3.457031-7.726563 7.722656-7.726563 4.269532 0 7.726563 3.460938 7.726563 7.726563v7.820313c.003906 4.265624-3.457031 7.726562-7.726563 7.726562zm0 0" fill="#d9efec"/><path d="m353.753906 109.527344h-45.871094c-4.347656 0-7.875-3.527344-7.875-7.875v-72.316406c0-4.351563 3.527344-7.875 7.875-7.875h45.871094c4.347656 0 7.875 3.523437 7.875 7.875v72.316406c0 4.347656-3.527344 7.875-7.875 7.875zm0 0" fill="#f55"/><path d="m361.628906 29.332031v72.316407c0 4.351562-3.527344 7.878906-7.875 7.878906h-13.742187c4.347656 0 7.875-3.527344 7.875-7.878906v-72.316407c0-4.347656-3.527344-7.871093-7.875-7.871093h13.742187c4.347656 0 7.875 3.523437 7.875 7.871093zm0 0" fill="#f72b2b"/><path d="m300.007812 45.257812h61.621094v35.023438h-61.621094zm0 0" fill="#d9efec"/><path d="m347.886719 45.257812h13.742187v35.023438h-13.742187zm0 0" fill="#c1dbd6"/><g fill="#95c6df"><path d="m466.15625 455.097656c-.023438 0-.046875 0-.066406 0h-.113282c-4.269531-.039062-7.695312-3.53125-7.660156-7.796875.039063-4.242187 3.492188-7.65625 7.726563-7.65625h.070312.113281c4.265626.039063 7.695313 3.527344 7.65625 7.796875-.039062 4.242188-3.488281 7.65625-7.726562 7.65625zm0 0"/><path d="m45.902344 455.097656c-.023438 0-.046875 0-.070313 0h-.113281c-4.269531-.039062-7.695312-3.53125-7.65625-7.796875.035156-4.242187 3.488281-7.65625 7.722656-7.65625h.070313.113281c4.265625.039063 7.695312 3.527344 7.65625 7.796875-.035156 4.242188-3.488281 7.65625-7.722656 7.65625zm0 0"/></g></svg>